<?xml version="1.0" standalone="no"?>
<!DOCTYPE svg PUBLIC "-//W3C//DTD SVG 20010904//EN"
 "http://www.w3.org/TR/2001/REC-SVG-20010904/DTD/svg10.dtd">
<svg version="1.0" xmlns="http://www.w3.org/2000/svg"
 width="900.000000pt" height="900.000000pt" viewBox="0 0 900.000000 900.000000"
 preserveAspectRatio="xMidYMid meet">
<metadata>
Created by potrace 1.10, written by Peter Selinger 2001-2011
</metadata>
<g transform="translate(0.000000,900.000000) scale(0.100000,-0.100000)"
fill="#000000" stroke="none">
<path d="M4110 8950 c-36 -4 -112 -13 -170 -19 -58 -6 -121 -15 -140 -21 -19
-5 -48 -10 -64 -10 -46 0 -340 -67 -465 -106 -25 -8 -51 -14 -59 -14 -8 0 -28
-6 -45 -14 -18 -7 -61 -23 -97 -34 -85 -28 -150 -50 -175 -61 -11 -5 -45 -19
-75 -31 -140 -54 -339 -149 -475 -225 -44 -24 -89 -49 -100 -55 -11 -6 -33
-19 -50 -30 -16 -11 -37 -23 -45 -27 -41 -19 -397 -267 -420 -293 -3 -3 -38
-31 -77 -63 -106 -84 -161 -135 -323 -297 -162 -162 -213 -217 -297 -323 -32
-39 -60 -74 -63 -77 -26 -23 -274 -379 -293 -420 -4 -8 -16 -28 -27 -45 -11
-16 -24 -39 -30 -50 -6 -11 -26 -47 -45 -80 -19 -33 -64 -121 -100 -195 -79
-161 -92 -190 -135 -300 -12 -30 -26 -64 -31 -75 -11 -25 -33 -90 -61 -175
-11 -36 -27 -79 -34 -97 -8 -17 -14 -37 -14 -45 0 -8 -6 -34 -14 -59 -18 -56
-41 -146 -60 -229 -8 -36 -20 -89 -26 -119 -7 -29 -16 -79 -20 -110 -9 -63
-24 -173 -42 -288 -16 -115 -23 -714 -8 -848 6 -61 15 -146 20 -190 8 -77 14
-119 46 -290 27 -141 65 -297 90 -370 8 -23 14 -48 14 -57 0 -10 6 -32 14 -50
7 -18 21 -58 30 -88 9 -30 23 -72 31 -92 8 -21 22 -57 31 -80 57 -149 105
-262 175 -403 46 -94 129 -246 167 -307 9 -15 36 -57 60 -95 23 -37 48 -77 55
-88 6 -11 37 -53 67 -95 31 -41 63 -87 72 -101 9 -14 23 -32 30 -40 8 -8 36
-43 62 -79 27 -36 54 -69 60 -75 6 -5 52 -57 102 -115 355 -409 843 -779 1359
-1033 117 -57 143 -69 215 -100 66 -28 85 -36 140 -57 30 -12 70 -28 88 -36
18 -8 39 -14 46 -14 8 0 27 -7 42 -15 16 -8 39 -15 51 -15 12 0 24 -4 28 -9 3
-5 20 -12 38 -16 17 -4 52 -13 77 -20 151 -46 344 -90 520 -119 274 -45 345
-50 740 -50 310 0 409 3 510 17 221 31 360 56 490 88 25 6 63 14 85 18 22 4
56 12 75 18 19 6 62 19 95 28 33 9 75 23 93 31 18 8 40 14 50 14 9 0 30 7 46
15 15 8 34 15 42 15 7 0 28 6 46 14 18 8 58 24 88 36 30 11 66 26 80 32 14 5
39 16 55 22 235 96 596 298 820 458 46 33 228 170 250 189 235 198 446 409
644 644 19 22 156 204 189 250 166 233 339 542 457 820 27 64 35 82 55 135 12
30 28 70 36 88 8 18 14 39 14 46 0 8 7 27 15 42 8 16 15 37 15 46 0 10 6 32
14 50 8 18 22 60 31 93 9 33 22 76 28 95 6 19 14 53 18 75 4 22 12 60 18 85
75 302 124 759 113 1050 -8 233 -22 454 -32 520 -45 304 -85 491 -145 690 -7
25 -16 60 -20 77 -4 18 -11 35 -16 38 -5 4 -9 16 -9 28 0 12 -7 35 -15 51 -8
15 -15 34 -15 42 0 7 -6 28 -14 46 -8 18 -24 58 -36 88 -11 30 -26 66 -32 80
-5 14 -16 39 -23 55 -241 579 -668 1172 -1135 1578 -58 51 -109 97 -115 103
-5 6 -39 33 -75 60 -36 26 -69 53 -75 60 -5 6 -32 26 -60 44 -27 19 -52 36
-55 39 -11 13 -97 71 -209 141 -40 25 -84 53 -99 62 -100 62 -309 172 -447
233 -33 15 -78 35 -100 45 -22 10 -60 26 -85 35 -25 10 -54 21 -65 26 -26 11
-94 35 -175 61 -36 11 -81 26 -100 33 -19 7 -64 21 -100 30 -36 10 -85 23
-110 30 -142 39 -392 85 -630 116 -111 14 -773 21 -870 9z m-1329 -2570 c19
-11 19 -27 19 -653 0 -510 3 -641 12 -639 7 2 38 28 68 57 109 107 202 166
358 226 52 20 220 49 285 49 76 0 230 -24 287 -45 231 -84 353 -186 436 -365
92 -196 95 -242 92 -1250 l-3 -845 -304 -3 c-216 -2 -308 1 -317 9 -12 10 -14
137 -14 748 -1 752 -9 964 -41 1036 -22 49 -70 110 -109 138 -69 49 -132 67
-238 67 -100 0 -154 -12 -242 -54 -53 -25 -158 -128 -181 -177 -9 -19 -21 -45
-28 -59 -6 -14 -21 -61 -33 -105 -21 -78 -21 -103 -25 -825 -3 -448 -8 -751
-14 -762 -9 -17 -31 -18 -312 -18 -222 0 -306 3 -315 12 -9 9 -12 407 -12
1730 0 1625 1 1718 18 1727 24 14 587 15 613 1z m2493 4 c14 -6 16 -72 16
-650 0 -712 -3 -682 62 -609 71 82 262 205 378 245 67 23 225 50 292 50 164 0
362 -59 498 -148 72 -47 93 -66 143 -132 80 -105 126 -220 151 -380 15 -93 17
-203 14 -975 l-3 -870 -310 0 -310 0 -6 790 c-8 937 -11 972 -93 1078 -107
140 -347 170 -553 68 -57 -28 -143 -116 -172 -177 -13 -27 -28 -57 -33 -67 -5
-10 -13 -41 -19 -70 -6 -29 -15 -70 -21 -92 -6 -23 -12 -346 -15 -775 -3 -478
-9 -739 -15 -747 -15 -18 -598 -19 -616 -1 -18 18 -17 3454 1 3461 18 8 592 8
611 1z"/>
</g>
</svg>
