<!--?xml version="1.0" encoding="utf-8"?-->
<!-- Svg Vector Icons : http://www.onlinewebfonts.com/icon -->

<svg version="1.1" xmlns="http://www.w3.org/2000/svg" xmlns:xlink="http://www.w3.org/1999/xlink" x="0px" y="0px" viewBox="0 0 256 256" enable-background="new 0 0 256 256" xml:space="preserve">
<metadata> Svg Vector Icons : http://www.onlinewebfonts.com/icon </metadata>
<g><g><path fill="#ffffff" data-title="Layer 0" xs="0" d="M12.9,88.5h50.7v152.3H12.9V88.5z M38.6,15.2C21.4,15.2,10,26.6,10,41.5c0,14.6,10.9,26.3,28,26.3h0.3c17.7,0,28.7-11.7,28.6-26.3C66.7,26.6,55.9,15.2,38.6,15.2z M187.8,85c-27,0-39,14.8-45.6,25.2V88.5H91.6c0,0,0.6,14.3,0,152.3h50.5v-85c0-4.6,0.5-9.1,1.7-12.4c3.7-9.1,12-18.4,26-18.4c18.3,0,25.6,14,25.6,34.4v81.4H246v-87.3C246,106.8,221.1,85,187.8,85L187.8,85z"/></g></g>
</svg>