<svg xmlns="http://www.w3.org/2000/svg" version="1.1" xmlns:xlink="http://www.w3.org/1999/xlink" xmlns:svgjs="http://svgjs.dev/svgjs" width="1000" height="1000" viewBox="0 0 1000 1000"><rect width="1000" height="1000" fill="#000000"></rect><g transform="matrix(0.7,0,0,0.7,149.5757575757575,432.79455992677345)"><svg viewBox="0 0 396 76" data-background-color="#ffffff" preserveAspectRatio="xMidYMid meet" height="191" width="1000" xmlns="http://www.w3.org/2000/svg" xmlns:xlink="http://www.w3.org/1999/xlink"><g id="tight-bounds" transform="matrix(1,0,0,1,0.24000000000003752,0.20204521739131565)"><svg viewBox="0 0 395.5199999999999 75.59590956521738" height="75.59590956521738" width="395.5199999999999"><g><svg viewBox="0 0 395.52000000000004 75.5959095652174" height="75.59590956521738" width="395.5199999999999"><g><svg viewBox="0 0 395.52000000000004 75.5959095652174" height="75.5959095652174" width="395.52000000000004"><g id="textblocktransform"><svg viewBox="0 0 395.52000000000004 75.5959095652174" height="75.5959095652174" width="395.52000000000004" id="textblock"><g><svg viewBox="0 0 395.52000000000004 75.5959095652174" height="75.5959095652174" width="395.52000000000004"><g transform="matrix(1,0,0,1,0,0)"><svg width="395.52000000000004" viewBox="2.5 -41.45000076293945 287.4800109863281 54.95000076293945" height="75.5959095652174" data-palette-color="#000000"><path d="M13.6-24.35Q14.65-26.3 16.63-27.43 18.6-28.55 21.35-28.55L21.35-28.55Q24.65-28.55 27.3-26.83 29.95-25.1 31.48-21.83 33-18.55 33-14.1L33-14.1Q33-9.65 31.48-6.38 29.95-3.1 27.3-1.38 24.65 0.35 21.35 0.35L21.35 0.35Q18.6 0.35 16.63-0.78 14.65-1.9 13.6-3.85L13.6-3.85 13.6 13.5 2.5 13.5 2.5-28.2 13.6-28.2 13.6-24.35ZM21.75-14.1Q21.75-16.35 20.6-17.6 19.45-18.85 17.65-18.85L17.65-18.85Q15.85-18.85 14.7-17.6 13.55-16.35 13.55-14.1L13.55-14.1Q13.55-11.85 14.7-10.6 15.85-9.35 17.65-9.35L17.65-9.35Q19.45-9.35 20.6-10.6 21.75-11.85 21.75-14.1L21.75-14.1ZM42.1-30.45Q39.2-30.45 37.45-32 35.7-33.55 35.7-35.9L35.7-35.9Q35.7-38.3 37.45-39.88 39.2-41.45 42.1-41.45L42.1-41.45Q44.95-41.45 46.7-39.88 48.45-38.3 48.45-35.9L48.45-35.9Q48.45-33.55 46.7-32 44.95-30.45 42.1-30.45L42.1-30.45ZM36.5-28.2L47.6-28.2 47.6 0 36.5 0 36.5-28.2ZM90.25-28.4Q95.65-28.4 98.62-25.15 101.59-21.9 101.59-16.35L101.59-16.35 101.59 0 90.55 0 90.55-14.95Q90.55-16.75 89.47-17.78 88.4-18.8 86.59-18.8L86.59-18.8Q84.75-18.8 83.7-17.78 82.65-16.75 82.65-14.95L82.65-14.95 82.65 0 71.59 0 71.59-14.95Q71.59-16.75 70.52-17.78 69.45-18.8 67.65-18.8L67.65-18.8Q65.8-18.8 64.75-17.78 63.7-16.75 63.7-14.95L63.7-14.95 63.7 0 52.6 0 52.6-28.2 63.7-28.2 63.7-24.4Q64.9-26.2 66.97-27.3 69.05-28.4 71.84-28.4L71.84-28.4Q74.9-28.4 77.25-27.08 79.59-25.75 81-23.35L81-23.35Q82.55-25.55 84.95-26.98 87.34-28.4 90.25-28.4L90.25-28.4ZM117.49-24.35Q118.54-26.3 120.52-27.43 122.49-28.55 125.24-28.55L125.24-28.55Q128.54-28.55 131.19-26.83 133.84-25.1 135.37-21.83 136.89-18.55 136.89-14.1L136.89-14.1Q136.89-9.65 135.37-6.38 133.84-3.1 131.19-1.38 128.54 0.35 125.24 0.35L125.24 0.35Q122.49 0.35 120.52-0.78 118.54-1.9 117.49-3.85L117.49-3.85 117.49 13.5 106.39 13.5 106.39-28.2 117.49-28.2 117.49-24.35ZM125.64-14.1Q125.64-16.35 124.49-17.6 123.34-18.85 121.54-18.85L121.54-18.85Q119.74-18.85 118.59-17.6 117.44-16.35 117.44-14.1L117.44-14.1Q117.44-11.85 118.59-10.6 119.74-9.35 121.54-9.35L121.54-9.35Q123.34-9.35 124.49-10.6 125.64-11.85 125.64-14.1L125.64-14.1ZM178.04-28.4Q183.44-28.4 186.42-25.15 189.39-21.9 189.39-16.35L189.39-16.35 189.39 0 178.34 0 178.34-14.95Q178.34-16.75 177.27-17.78 176.19-18.8 174.39-18.8L174.39-18.8Q172.54-18.8 171.49-17.78 170.44-16.75 170.44-14.95L170.44-14.95 170.44 0 159.39 0 159.39-14.95Q159.39-16.75 158.32-17.78 157.24-18.8 155.44-18.8L155.44-18.8Q153.59-18.8 152.54-17.78 151.49-16.75 151.49-14.95L151.49-14.95 151.49 0 140.39 0 140.39-28.2 151.49-28.2 151.49-24.4Q152.69-26.2 154.77-27.3 156.84-28.4 159.64-28.4L159.64-28.4Q162.69-28.4 165.04-27.08 167.39-25.75 168.79-23.35L168.79-23.35Q170.34-25.55 172.74-26.98 175.14-28.4 178.04-28.4L178.04-28.4ZM213.79-28.2L226.04-28.2 207.99 13.5 195.84 13.5 202.94-1.4 191.19-28.2 203.54-28.2 208.84-13.9 213.79-28.2ZM239.14-24.35Q240.19-26.3 242.16-27.43 244.14-28.55 246.89-28.55L246.89-28.55Q250.19-28.55 252.84-26.83 255.49-25.1 257.01-21.83 258.54-18.55 258.54-14.1L258.54-14.1Q258.54-9.65 257.01-6.38 255.49-3.1 252.84-1.38 250.19 0.35 246.89 0.35L246.89 0.35Q244.14 0.35 242.16-0.78 240.19-1.9 239.14-3.85L239.14-3.85 239.14 0 228.04 0 228.04-37 239.14-37 239.14-24.35ZM247.29-14.1Q247.29-16.35 246.14-17.6 244.99-18.85 243.19-18.85L243.19-18.85Q241.39-18.85 240.24-17.6 239.09-16.35 239.09-14.1L239.09-14.1Q239.09-11.85 240.24-10.6 241.39-9.35 243.19-9.35L243.19-9.35Q244.99-9.35 246.14-10.6 247.29-11.85 247.29-14.1L247.29-14.1ZM267.63-30.45Q264.73-30.45 262.98-32 261.23-33.55 261.23-35.9L261.23-35.9Q261.23-38.3 262.98-39.88 264.73-41.45 267.63-41.45L267.63-41.45Q270.48-41.45 272.23-39.88 273.98-38.3 273.98-35.9L273.98-35.9Q273.98-33.55 272.23-32 270.48-30.45 267.63-30.45L267.63-30.45ZM262.03-28.2L273.13-28.2 273.13 0 262.03 0 262.03-28.2ZM283.63 0.4Q280.73 0.4 278.98-1.15 277.23-2.7 277.23-5.05L277.23-5.05Q277.23-7.45 278.98-9.03 280.73-10.6 283.63-10.6L283.63-10.6Q286.48-10.6 288.23-9.03 289.98-7.45 289.98-5.05L289.98-5.05Q289.98-2.7 288.23-1.15 286.48 0.4 283.63 0.4L283.63 0.4Z" opacity="1" transform="matrix(1,0,0,1,0,0)" fill="#ffffff" class="wordmark-text-0" data-fill-palette-color="primary" id="text-0"></path></svg></g></svg></g></svg></g></svg></g></svg></g><defs></defs></svg><rect width="292.651px" height="70px" fill="none" stroke="none" visibility="hidden"></rect></g></svg></g></svg>