<?xml version="1.0" standalone="no"?>
<!DOCTYPE svg PUBLIC "-//W3C//DTD SVG 20010904//EN"
 "http://www.w3.org/TR/2001/REC-SVG-20010904/DTD/svg10.dtd">
<svg version="1.0" xmlns="http://www.w3.org/2000/svg"
 width="900.000000pt" height="900.000000pt" viewBox="0 0 900.000000 900.000000"
 preserveAspectRatio="xMidYMid meet">
<metadata>
Created by potrace 1.10, written by Peter Selinger 2001-2011
</metadata>
<g transform="translate(0.000000,900.000000) scale(0.100000,-0.100000)"
fill="#000000" stroke="none">
<path d="M4305 8394 c-126 -6 -436 -50 -555 -79 -30 -8 -86 -21 -125 -30 -114
-26 -307 -86 -435 -135 -30 -12 -66 -25 -80 -29 -58 -18 -389 -179 -478 -232
-187 -111 -268 -164 -402 -264 -181 -135 -259 -203 -425 -370 -151 -151 -199
-202 -260 -280 -22 -27 -43 -52 -46 -55 -13 -12 -158 -210 -201 -275 -135
-205 -287 -492 -363 -685 -17 -44 -27 -68 -59 -143 -9 -21 -16 -44 -16 -52 0
-8 -6 -29 -14 -47 -17 -40 -61 -187 -90 -303 -37 -147 -60 -277 -92 -515 -24
-171 -23 -733 0 -860 9 -47 16 -101 16 -120 0 -33 11 -97 46 -270 50 -248 155
-568 262 -800 36 -80 122 -250 144 -285 10 -16 21 -37 25 -45 16 -34 102 -172
172 -275 251 -371 607 -733 984 -1000 43 -30 80 -55 82 -55 2 0 33 -20 69 -45
37 -25 68 -45 71 -45 3 0 23 -11 45 -25 102 -64 463 -245 489 -245 5 0 42 -14
82 -31 103 -43 182 -71 269 -96 30 -8 78 -21 105 -29 28 -8 70 -19 94 -25 25
-5 59 -13 75 -19 32 -9 130 -28 291 -54 470 -78 1007 -56 1505 60 202 47 461
133 645 215 130 57 162 71 175 79 8 5 51 27 95 50 44 23 87 45 95 50 8 5 58
35 110 66 147 87 347 228 469 330 18 16 43 37 55 47 113 94 318 300 447 447
41 47 194 249 252 332 53 76 182 291 216 358 12 25 26 52 31 60 10 15 87 179
122 260 21 49 27 62 53 130 9 25 23 60 31 78 8 18 14 39 14 47 0 8 6 29 14 47
21 51 38 109 91 316 30 119 71 347 80 442 3 36 10 101 15 145 12 109 12 549
-1 660 -5 50 -14 131 -19 180 -4 50 -13 113 -19 140 -5 28 -17 88 -27 135 -75
383 -237 821 -420 1135 -22 39 -44 77 -48 85 -10 22 -26 48 -74 118 -23 35
-42 66 -42 68 0 8 -209 285 -264 349 -128 152 -349 370 -496 490 -160 131
-167 136 -285 216 -251 171 -486 297 -760 408 -44 18 -95 39 -113 47 -18 8
-39 14 -47 14 -8 0 -29 6 -47 14 -43 18 -96 36 -133 46 -458 121 -649 150
-1044 154 -152 2 -312 2 -356 0z m-1647 -2396 c9 -9 12 -204 13 -812 0 -826 2
-877 41 -976 73 -185 239 -321 433 -352 116 -19 281 6 368 55 87 48 185 147
235 235 27 48 51 131 61 211 7 54 11 362 11 856 0 586 3 774 12 783 18 18 558
17 579 0 8 -7 23 -38 33 -68 10 -30 24 -71 31 -90 7 -19 27 -73 44 -120 18
-47 38 -98 45 -115 8 -16 24 -55 36 -85 105 -259 396 -810 421 -794 5 2 17 33
28 67 108 347 347 634 641 770 173 80 271 101 485 101 183 1 272 -12 363 -50
18 -8 38 -14 45 -14 20 0 192 -88 259 -132 116 -77 261 -226 339 -348 29 -45
66 -116 109 -210 40 -88 80 -293 80 -410 0 -122 -34 -299 -76 -398 -8 -18 -14
-37 -14 -42 0 -15 -59 -138 -94 -195 -72 -119 -204 -269 -316 -357 -196 -154
-471 -248 -725 -248 -153 0 -367 35 -463 76 -18 8 -40 14 -48 14 -9 0 -28 6
-42 13 -127 64 -242 117 -255 117 -16 0 -37 -48 -37 -87 0 -13 -6 -49 -14 -81
-8 -31 -22 -93 -31 -137 -10 -44 -23 -107 -30 -140 -8 -33 -21 -96 -30 -140
-9 -44 -23 -107 -30 -140 -15 -70 -41 -191 -61 -287 -30 -147 -47 -214 -57
-226 -13 -16 -592 -18 -602 -1 -4 6 -2 29 3 52 6 23 18 76 27 117 16 77 36
170 59 275 8 33 21 96 31 140 9 44 23 107 30 140 7 33 21 94 30 135 9 41 22
102 29 135 20 89 42 190 61 280 9 44 23 105 30 135 7 30 21 91 30 135 9 44 22
101 28 126 13 57 3 84 -62 174 -95 132 -208 319 -294 488 -45 88 -57 77 -57
-53 0 -137 -16 -297 -36 -375 -20 -72 -51 -169 -63 -193 -39 -80 -81 -155
-114 -205 -55 -84 -229 -255 -312 -309 -235 -152 -492 -214 -760 -183 -162 19
-219 34 -352 96 -35 16 -65 29 -67 29 -7 0 -93 58 -161 109 -108 80 -220 209
-298 343 -38 65 -51 93 -89 188 -19 47 -39 135 -54 229 -19 127 -21 1730 -2
1749 9 9 87 12 288 12 201 0 279 -3 288 -12z"/>
<path d="M6018 5070 c-172 -39 -313 -161 -395 -340 -47 -104 -83 -219 -83
-265 0 -31 -22 -133 -44 -205 -20 -62 -26 -104 -18 -116 27 -38 204 -147 312
-191 137 -56 193 -68 335 -68 119 0 136 3 203 29 40 15 99 46 131 67 61 41
175 155 192 193 6 11 19 37 29 56 46 86 64 161 64 275 0 123 -14 176 -73 280
-38 65 -149 181 -196 205 -17 8 -37 19 -45 25 -42 32 -210 75 -285 74 -27 0
-84 -9 -127 -19z"/>
</g>
</svg>
