 <svg  version="1.0" xmlns="http://www.w3.org/2000/svg"  width="1536.000000pt" height="1536.000000pt" viewBox="0 0 1536.000000 1536.000000"  preserveAspectRatio="xMidYMid meet">  <g transform="translate(0.000000,1536.000000) scale(0.100000,-0.100000)" fill="#ffffff" stroke="none"> <path d="M6500 14455 c-113 -7 -243 -17 -290 -24 -47 -6 -121 -16 -165 -22 -115 -16 -364 -58 -405 -69 -19 -5 -69 -16 -110 -25 -85 -18 -176 -41 -235 -60 -22 -7 -67 -21 -100 -30 -279 -78 -638 -218 -935 -365 -129 -64 -264 -135 -285 -150 -5 -4 -37 -22 -70 -40 -243 -134 -613 -397 -882 -628 -186 -159 -474 -447 -629 -628 -135 -158 -432 -550 -457 -604 -4 -8 -29 -49 -56 -90 -116 -176 -293 -505 -404 -749 -55 -120 -176 -432 -197 -506 -5 -16 -20 -61 -33 -100 -24 -66 -81 -271 -107 -380 -6 -27 -17 -75 -25 -105 -96 -387 -145 -832 -145 -1315 0 -490 47 -918 145 -1315 89 -362 103 -411 187 -650 26 -76 142 -368 165 -420 81 -174 210 -431 261 -516 32 -55 61 -106 65 -114 24 -48 184 -293 276 -420 417 -583 990 -1133 1566 -1504 33 -22 79 -52 103 -68 24 -16 96 -58 160 -95 64 -36 133 -75 152 -86 47 -27 291 -149 363 -181 31 -14 81 -37 111 -51 136 -62 517 -201 661 -240 28 -7 88 -25 135 -38 128 -38 382 -93 535 -117 33 -5 76 -14 95 -20 19 -5 53 -10 75 -10 22 0 83 -6 135 -15 436 -68 1184 -56 1620 26 30 6 82 14 115 19 33 4 80 13 105 18 25 6 81 18 125 27 94 20 327 78 402 100 29 9 74 22 100 30 122 36 463 162 568 210 44 19 107 48 140 63 111 50 319 155 393 199 41 24 75 43 77 43 6 0 151 88 257 156 370 239 645 462 969 784 266 265 506 546 669 786 288 422 501 814 644 1184 20 52 43 109 51 125 30 64 124 354 165 510 4 17 18 66 30 110 13 44 26 98 30 120 4 22 12 58 18 80 6 22 18 81 27 130 9 50 20 108 25 130 12 55 48 335 61 475 18 183 23 762 9 940 -15 195 -46 471 -65 575 -9 44 -22 118 -31 165 -8 47 -21 110 -29 140 -8 30 -23 91 -34 135 -19 78 -24 98 -75 280 -24 87 -71 230 -101 308 -8 20 -21 54 -29 75 -68 175 -95 242 -138 337 -247 548 -568 1043 -986 1517 -107 121 -395 404 -530 521 -190 164 -414 335 -597 454 -55 36 -118 78 -140 93 -64 43 -307 181 -459 259 -121 62 -203 101 -336 158 -19 8 -48 20 -65 28 -127 55 -218 89 -390 145 -464 151 -689 202 -1205 270 -126 16 -556 40 -710 38 -74 0 -227 -6 -340 -13z m-2513 -3586 l22 -8 4 -1248 c3 -1372 -1 -1287 64 -1443 62 -150 153 -267 283 -364 90 -67 135 -90 260 -134 69 -23 89 -26 240 -26 179 -1 214 5 340 57 242 99 418 298 501 567 l23 75 4 1257 c3 1174 4 1258 20 1267 9 5 202 9 435 9 370 -1 421 -3 438 -17 17 -14 55 -111 118 -301 8 -23 19 -51 42 -105 5 -11 34 -85 64 -165 31 -79 67 -167 80 -195 45 -98 82 -181 110 -245 36 -81 219 -441 287 -564 89 -161 200 -337 211 -333 6 2 19 30 30 63 119 360 279 634 500 857 219 220 457 358 767 443 258 71 591 74 855 8 523 -131 961 -484 1191 -957 19 -40 39 -80 44 -89 16 -30 60 -160 81 -243 33 -127 59 -312 59 -420 0 -251 -95 -622 -214 -838 -13 -23 -37 -68 -55 -99 -133 -243 -396 -513 -646 -664 -123 -75 -334 -165 -460 -197 -33 -9 -78 -20 -100 -26 -161 -42 -543 -42 -770 0 -88 17 -246 59 -320 86 -22 9 -56 21 -75 28 -108 40 -272 116 -368 172 -24 13 -49 22 -57 20 -7 -3 -17 -32 -23 -64 -6 -32 -28 -134 -48 -228 -20 -93 -40 -191 -44 -216 -5 -25 -13 -64 -18 -85 -10 -38 -21 -89 -57 -259 -9 -44 -21 -98 -27 -119 -5 -21 -13 -60 -18 -85 -4 -25 -25 -125 -45 -221 -21 -96 -41 -196 -45 -221 -5 -25 -13 -64 -18 -85 -16 -60 -40 -175 -47 -217 -3 -22 -11 -50 -17 -63 l-11 -24 -453 0 c-251 0 -455 4 -458 9 -3 5 4 51 15 102 12 52 24 112 28 134 5 22 13 58 19 80 5 22 18 76 27 120 9 44 23 107 31 140 7 33 28 125 44 205 32 148 48 224 76 353 38 175 47 215 59 267 23 98 57 252 105 480 53 248 85 397 105 480 59 248 59 238 -6 332 -50 72 -120 178 -208 313 -46 71 -181 297 -194 325 -4 8 -17 31 -28 50 -12 19 -46 84 -76 143 -31 60 -59 105 -63 100 -4 -4 -10 -120 -13 -258 -5 -247 -14 -353 -43 -470 -41 -161 -45 -174 -109 -329 -85 -205 -197 -369 -375 -547 -141 -141 -229 -206 -413 -307 -365 -200 -833 -253 -1242 -142 -395 107 -753 362 -984 699 -61 89 -173 299 -190 356 -5 17 -18 54 -29 83 -28 73 -58 207 -76 340 -14 97 -16 287 -16 1353 l0 1240 23 8 c29 11 825 11 854 0z"/> <path d="M9155 9489 c-159 -21 -211 -36 -320 -91 -207 -104 -375 -326 -464 -617 -38 -121 -71 -274 -71 -323 0 -13 -6 -43 -14 -68 -8 -25 -22 -74 -32 -110 -9 -36 -23 -87 -31 -113 -8 -26 -12 -58 -9 -70 15 -62 354 -264 562 -336 181 -63 392 -91 527 -71 268 40 491 176 646 395 294 416 224 916 -172 1222 -170 131 -432 208 -622 182z"/> </g> </svg> 