<?xml version="1.0" encoding="utf-8"?>
<!-- Generator: Adobe Illustrator 21.1.0, SVG Export Plug-In . SVG Version: 6.00 Build 0)  -->
<svg version="1.1" id="Layer_1" xmlns="http://www.w3.org/2000/svg" xmlns:xlink="http://www.w3.org/1999/xlink" x="0px" y="0px"
	 viewBox="0 0 397.8 45.4" style="enable-background:new 0 0 397.8 45.4;" xml:space="preserve">
<style type="text/css">
	.st0{fill:#FDA329;}
	.st1{display:none;fill:#004259;}
	.st2{fill:none;}
	.st3{enable-background:new    ;}
	.st4{fill:#004259;}
</style>
<title>expobank_logo</title>
<g id="Layer_2">
	<g id="Layer_1-2">
		<path class="st0" d="M23.5,16.2c0-7.4,6-13.4,13.4-13.4s13.4,6,13.4,13.4s-6,13.4-13.4,13.4l0,0C29.5,29.6,23.5,23.6,23.5,16.2z"
			/>
		<rect y="34.6" class="st0" width="73.9" height="10.1"/>
		<path class="st0" d="M5,2.7c-1.7,0-3.4,0.3-5,1v24.9c6.9,2.8,14.7-0.6,17.5-7.5S16.9,6.4,10,3.7C8.4,3.1,6.7,2.7,5,2.7z"/>
		<path class="st0" d="M68.8,2.7c1.7,0,3.4,0.3,5,1v24.9c-6.9,2.8-14.7-0.5-17.5-7.4s0.5-14.7,7.4-17.5C65.4,3.1,67.1,2.7,68.8,2.7
			L68.8,2.7z"/>
		<path class="st1" d="M110.7,45.4c-3.8-0.1-7.6-0.6-11.3-1.6l1.2-6.5c2.8,0.6,5.6,1,8.4,1.2c8.3,0,11.7-4.1,12.2-12.6L106.8,26
			v-6.6l14.4,0.1c-0.6-6.6-4.2-10.6-11.5-10.6c-2.8,0-5.6,0.3-8.3,1L100,3.3c3.4-1,6.8-1.5,10.3-1.5c13.8,0,20.2,6.9,20.2,20.6
			C130.6,35.5,125.1,45.4,110.7,45.4z M172.5,29.6c0,5.6,1.7,9.1,7,9.1c3.2,0,5.1-0.7,8.3-1.6l1.8,6c-3.7,1.6-7.6,2.3-11.6,2.2
			c-10,0-14.3-5.4-14.3-15.4c0-9.5,4.4-16.1,14.6-16.1c3.2-0.1,6.5,0.3,9.6,1.1l-1.5,6.2c-2.2-0.6-4.4-0.9-6.7-0.8
			C174.7,20.5,172.5,24.3,172.5,29.6z M193.5,14.5v30.2h8.5V20.8h11v23.9h8.4V14.5H193.5z M255.8,29.6c0,9.8-5.1,15.8-15.5,15.8
			c-10,0-14.8-5.7-14.8-15.7c0-9.2,5.1-15.7,15.2-15.7S255.8,19.9,255.8,29.6L255.8,29.6z M247,29.7c0-4.4-1.3-9.4-6.4-9.4
			c-4.7,0-6.3,4.6-6.3,9.4c0,5.3,1.2,9.4,6.3,9.4C245.6,39,247,34.8,247,29.7z M274,2.3c3.7-1,7.5-1.8,11.2-2.3l1.3,6.5
			c0,0-4,0.8-10.4,2.1c-2.5,0.4-4.9,1.4-7,3c-2.4,2.1-3,4.3-3.1,8.1c0.1,0,0.2,0.1,0.2,0.2c1.9-3.3,6.9-5.3,10.5-5.3
			c8.9,0,12.9,6.2,12.9,15.5s-5.3,15.4-15.2,15.4c-9.5,0-14.4-6.7-14.8-16.8c-0.5-11,0.7-15.8,3.5-20C266,5.4,269.8,3.2,274,2.3z
			 M275,20.9c-4.5,0-6.6,5-6.6,9.5s1.3,8.6,6.3,8.6c4.7,0,6.1-4,6.1-8.9C280.8,25.5,279.8,20.9,275,20.9L275,20.9z M320,38.8h4
			l0.4,5.1c-2.4,0.9-4.9,1.4-7.4,1.5c-2.6,0-4.4-0.9-4.8-3.7h-0.1c-2.9,2.5-6.7,3.8-10.6,3.7c-5.6,0-9.1-3.3-9.1-8.8
			c0-6.2,4.7-9.5,11-10c1.1-0.1,7.1-0.2,8.2-0.2v-0.6c0-4-1.3-5.5-5.6-5.5c-3.1,0.1-6.2,0.7-9.1,1.9l-1.9-5.9
			c4.2-1.5,8.6-2.3,13-2.3c7.4,0,11.8,2.8,11.8,10.7L320,38.8z M305.6,31.8c-2.8,0.2-4.3,1.5-4.3,4.1s1.5,3.6,4.2,3.6
			c2,0,4.5-1.3,6.2-2.6v-5.6L305.6,31.8z M347.3,44.7V32.1h-11.1v12.6h-8.5V14.5h8.5v11.2h11.1V14.5h8.5v30.2H347.3z M135.1,44.7
			V14.5h8.5v12.7h1.1l8.8-12.7h9.2L152,28l11.6,16.7h-10.2l-8.9-13.2h-1v13.2H135.1z M361.5,44.7V14.5h8.5v12.7h1.1l8.8-12.7h9.2
			L378.4,28l11.7,16.7h-10.2L371,31.5h-1v13.2H361.5z"/>
	</g>
</g>
<rect x="96.1" y="5" class="st2" width="303.3" height="119.3"/>
<g class="st3">
	<path class="st4" d="M129.2,9.2c4,4,6,9,6,15c0,6-2,11-6,15c-4,4.1-9,6.1-15.1,6.1c-7.4,0-13.9-3.7-17.4-9.6l6.9-4
		c1.9,3.5,5.9,5.7,10.5,5.7c6.6,0,11.3-3.7,12.7-9.6h-18.1v-7.5h18.1c-1.4-5.9-6.1-9.6-12.7-9.6c-4.6,0-8.5,2.1-10.5,5.8l-6.9-4
		c3.5-5.9,10.1-9.6,17.4-9.6C120.2,3.1,125.2,5.1,129.2,9.2z"/>
	<path class="st4" d="M167.2,44.5h-8.7L148,31.3v13.2h-7.5v-29h7.5v12.8l10-12.8h8.9l-11.7,14.3L167.2,44.5z"/>
	<path class="st4" d="M171.7,40.9c-2.9-3-4.3-6.6-4.3-10.9c0-4.3,1.4-7.9,4.3-10.9c3-3,6.6-4.4,11-4.4c5.6,0,10.6,2.9,13,7.5
		l-6.4,3.8c-1.2-2.4-3.7-3.9-6.6-3.9c-4.5,0-7.8,3.3-7.8,7.9c0,2.3,0.8,4.2,2.2,5.7c1.5,1.4,3.3,2.2,5.6,2.2c3,0,5.5-1.4,6.7-3.8
		l6.5,3.7c-2.6,4.6-7.5,7.5-13.1,7.5C178.3,45.3,174.7,43.9,171.7,40.9z"/>
	<path class="st4" d="M226.5,15.5v29H219v-22h-11.5v22h-7.5v-29H226.5z"/>
	<path class="st4" d="M247.1,45.3c-4.3,0-7.9-1.4-10.9-4.4c-3-3-4.4-6.6-4.4-10.9s1.4-7.9,4.4-10.8c3-3,6.6-4.5,10.9-4.5
		s7.9,1.5,10.9,4.5c3,3,4.5,6.6,4.5,10.8s-1.5,7.9-4.5,10.9C255,43.9,251.4,45.3,247.1,45.3z M247.1,38c2.3,0,4.1-0.8,5.6-2.3
		s2.3-3.4,2.3-5.7c0-2.3-0.8-4.2-2.3-5.7s-3.4-2.3-5.6-2.3c-2.3,0-4.1,0.8-5.6,2.3c-1.4,1.5-2.2,3.4-2.2,5.7c0,2.3,0.8,4.2,2.2,5.7
		C243,37.2,244.8,38,247.1,38z"/>
	<path class="st4" d="M270.4,40.9c-2.8-3-4.2-6.7-4.2-11.2c0-4.9,0.8-8.8,2.2-11.4c1.5-2.7,4.4-5.2,8.9-7.4c0.6-0.3,1.6-0.8,2.8-1.3
		l2.4-1.2c0.5-0.2,1.1-0.6,1.9-1c2.1-1.3,2.7-2.3,3.7-4.6l6.1,3.5c-0.5,2.4-1.6,4.2-3.4,5.5c-1.7,1.3-4.3,2.6-7.9,3.9
		c-4.9,1.9-6.8,3.7-7.8,6.4c2.1-2.2,5-3.3,8.7-3.3c3.2,0,6.1,1.2,8.6,3.5c2.5,2.3,3.8,5.4,3.8,9.3c0,4-1.3,7.2-4.1,9.8
		c-2.7,2.6-6.2,3.8-10.6,3.8C276.9,45.3,273.3,43.9,270.4,40.9z M276.3,26.6c-1.5,1.2-2.2,2.8-2.2,4.8s0.7,3.7,2.1,5
		c1.5,1.3,3.2,2,5.3,2c2.1,0,3.8-0.6,5.2-1.9c1.3-1.3,2-2.9,2-4.9c0-3.9-3-6.8-7.2-6.8C279.5,24.8,277.8,25.4,276.3,26.6z"/>
	<path class="st4" d="M322.7,15.5h7.5v29h-7.5v-3.4c-2.3,2.8-5.4,4.2-9.5,4.2c-3.9,0-7.2-1.4-10-4.4c-2.7-3-4.1-6.6-4.1-10.9
		s1.4-7.9,4.1-10.8c2.8-3,6.1-4.5,10-4.5c4.1,0,7.2,1.4,9.5,4.2V15.5z M314.6,38.2c2.3,0,4.2-0.8,5.7-2.3c1.6-1.6,2.3-3.5,2.3-5.9
		s-0.8-4.3-2.3-5.9c-1.5-1.6-3.4-2.3-5.7-2.3s-4.2,0.8-5.7,2.3c-1.5,1.5-2.3,3.5-2.3,5.9s0.8,4.4,2.3,5.9
		C310.4,37.4,312.3,38.2,314.6,38.2z"/>
	<path class="st4" d="M356,15.5h7.5v29H356v-11h-11.5v11h-7.5v-29h7.5v11H356V15.5z"/>
	<path class="st4" d="M397,44.5h-8.7l-10.6-13.2v13.2h-7.5v-29h7.5v12.8l10-12.8h8.9L385,29.8L397,44.5z"/>
</g>
</svg>
